<svg xmlns="http://www.w3.org/2000/svg" xmlns:xlink="http://www.w3.org/1999/xlink" version="1.1" x="0px" y="0px" width="595.28px" height="595.28px" viewBox="0 0 595.28 595.28" enable-background="new 0 0 595.28 595.28" xml:space="preserve"><style>.bg{fill:	#FBBE00;}</style><rect class="bg" width="595.3" height="595.3"/><g><path d="M132.856 245.285V111.088h25.659v53.537h36.238v-53.537h25.656v134.197h-25.656v-57.991h-36.238v57.991H132.856z"/><path d="M235.84 245.285l33.274-134.197h32.905l32.332 134.197h-24.534l-6.501-28.249h-35.503l-7.257 28.249H235.84z M272.458 194.361h25.458l-12.442-54.271h-0.376L272.458 194.361z"/><path d="M347.543 245.285V111.088h25.659v134.197H347.543z"/><path d="M397.735 245.285V111.088h25.652v111.524h41.27v22.673H397.735z"/><path d="M237.969 484.192c-82.32 0-111.918-43.477-111.918-105.453c0-61.978 29.598-105.447 111.918-105.447h119.328 c82.332 0 111.9 43.5 111.9 105.447c0 61.977-29.602 105.453-111.934 105.453H237.969z M365.626 425.6 c36.991 0 47.169-21.459 47.169-46.903c0-25.437-10.178-46.908-47.169-46.908H229.651c-37.002 0-47.176 21.472-47.176 46.9 c0 25.4 10.2 46.9 47.2 46.903H365.626z"/></g></svg>
