<?xml version="1.0" encoding="utf-8"?>
<!-- Generator: Adobe Illustrator 17.0.0, SVG Export Plug-In . SVG Version: 6.00 Build 0)  -->
<!DOCTYPE svg PUBLIC "-//W3C//DTD SVG 1.1//EN" "http://www.w3.org/Graphics/SVG/1.1/DTD/svg11.dtd">
<svg version="1.1" id="HailoIcon" xmlns="http://www.w3.org/2000/svg" xmlns:xlink="http://www.w3.org/1999/xlink" x="0px" y="0px"
	 width="343.18px" height="373.104px" viewBox="0 0 343.18 373.104" enable-background="new 0 0 343.18 373.104"
	 xml:space="preserve">
<g>
	<polygon fill="#333333" points="32.465,76.206 68.703,76.206 68.703,134.197 94.359,134.197 94.359,0 68.703,0 68.703,53.537 
		32.465,53.537 32.465,0 6.806,0 6.806,134.197 32.465,134.197 	"/>
	<path fill="#333333" d="M141.763,105.948h35.503l6.501,28.249h24.534L175.969,0h-32.905L109.79,134.197h24.716L141.763,105.948z
		 M159.047,29.002h0.376l12.442,54.271h-25.458L159.047,29.002z"/>
	<rect x="221.493" fill="#333333" width="25.659" height="134.197"/>
	<polygon fill="#333333" points="338.607,111.524 297.337,111.524 297.337,0 271.685,0 271.685,134.197 338.607,134.197 	"/>
	<path fill="#333333" d="M231.246,162.205H111.918C29.598,162.205,0,205.674,0,267.651c0,61.977,29.598,105.453,111.918,105.453
		h119.328c82.332,0,111.934-43.477,111.934-105.453C343.18,205.674,313.579,162.205,231.246,162.205z M239.576,314.555H103.601
		c-37.002,0-47.176-21.459-47.176-46.903c0-25.437,10.174-46.908,47.176-46.908h135.975c36.991,0,47.169,21.472,47.169,46.908
		C286.745,293.096,276.567,314.555,239.576,314.555z"/>
</g>
</svg>
